<svg width="100%" viewBox="0 0 522 522" role="img" xmlns="http://www.w3.org/2000/svg">
<defs>
  <radialGradient id="bg" cx="50%" cy="50%" r="70%">
    <stop offset="0%" stop-color="#0a2030"/>
    <stop offset="45%" stop-color="#070d18"/>
    <stop offset="100%" stop-color="#02060a"/>
  </radialGradient>
  <radialGradient id="burst-mega" cx="50%" cy="50%" r="55%">
    <stop offset="0%" stop-color="#00f5c4" stop-opacity="0.7"/>
    <stop offset="25%" stop-color="#38bdf8" stop-opacity="0.4"/>
    <stop offset="60%" stop-color="#00f5c4" stop-opacity="0.12"/>
    <stop offset="100%" stop-color="#050a0f" stop-opacity="0"/>
  </radialGradient>
  <radialGradient id="burst-core" cx="50%" cy="50%" r="45%">
    <stop offset="0%" stop-color="#ffffff" stop-opacity="0.85"/>
    <stop offset="20%" stop-color="#a8fff0" stop-opacity="0.6"/>
    <stop offset="50%" stop-color="#00f5c4" stop-opacity="0.3"/>
    <stop offset="100%" stop-color="#00f5c4" stop-opacity="0"/>
  </radialGradient>
  <radialGradient id="hex-fill" cx="50%" cy="40%" r="75%">
    <stop offset="0%" stop-color="#0e2438"/>
    <stop offset="55%" stop-color="#06121e"/>
    <stop offset="100%" stop-color="#020610"/>
  </radialGradient>
  <linearGradient id="n-teal" x1="0%" y1="0%" x2="0%" y2="100%">
    <stop offset="0%" stop-color="#d4fff5"/>
    <stop offset="50%" stop-color="#00f5c4"/>
    <stop offset="100%" stop-color="#008a70"/>
  </linearGradient>
  <linearGradient id="n-blue" x1="0%" y1="0%" x2="0%" y2="100%">
    <stop offset="0%" stop-color="#d4ecff"/>
    <stop offset="50%" stop-color="#38bdf8"/>
    <stop offset="100%" stop-color="#0560a0"/>
  </linearGradient>
  <linearGradient id="n-diag" x1="0%" y1="0%" x2="100%" y2="100%">
    <stop offset="0%" stop-color="#a8fff0"/>
    <stop offset="50%" stop-color="#7be8ff"/>
    <stop offset="100%" stop-color="#38bdf8"/>
  </linearGradient>
  <filter id="strong-glow" x="-60%" y="-60%" width="220%" height="220%">
    <feGaussianBlur stdDeviation="8" result="blur"/>
    <feMerge><feMergeNode in="blur"/><feMergeNode in="SourceGraphic"/></feMerge>
  </filter>
  <filter id="soft-glow" x="-50%" y="-50%" width="200%" height="200%">
    <feGaussianBlur stdDeviation="3.5" result="blur"/>
    <feMerge><feMergeNode in="blur"/><feMergeNode in="SourceGraphic"/></feMerge>
  </filter>
  <filter id="mega-glow" x="-100%" y="-100%" width="300%" height="300%">
    <feGaussianBlur stdDeviation="18" result="blur"/>
    <feMerge><feMergeNode in="blur"/><feMergeNode in="SourceGraphic"/></feMerge>
  </filter>
  <filter id="ultra-glow" x="-100%" y="-100%" width="300%" height="300%">
    <feGaussianBlur stdDeviation="28" result="blur"/>
    <feMerge><feMergeNode in="blur"/><feMergeNode in="SourceGraphic"/></feMerge>
  </filter>
  <filter id="ray-blur"><feGaussianBlur stdDeviation="2"/></filter>
  <clipPath id="hex-clip">
    <polygon points="256,100 388,176 388,324 256,400 124,324 124,176"/>
  </clipPath>
</defs>

<rect width="512" height="512" fill="url(#bg)"/>

<g opacity="0.22" font-family="monospace" font-size="9" fill="#00f5c4">
  <text x="30" y="55">01001</text>
  <text x="420" y="70">10110</text>
  <text x="50" y="455">&lt;/&gt;</text>
  <text x="430" y="445">{ }</text>
  <text x="20" y="240">011</text>
  <text x="465" y="260">101</text>
  <text x="95" y="100">11010</text>
  <text x="395" y="105">00101</text>
  <text x="70" y="385">&lt;N/&gt;</text>
  <text x="410" y="370">{0}</text>
  <text x="150" y="40">10</text>
  <text x="345" y="475">01</text>
  <text x="15" y="180">{ }</text>
  <text x="470" y="200">&lt;/&gt;</text>
  <text x="45" y="335">10110</text>
  <text x="445" y="325">01001</text>
  <text x="195" y="35">{ N }</text>
  <text x="285" y="492">&lt;/&gt;</text>
</g>
<g opacity="0.13" font-family="monospace" font-size="7" fill="#38bdf8">
  <text x="200" y="22">011010</text>
  <text x="270" y="500">110010</text>
  <text x="10" y="120">10110</text>
  <text x="455" y="385">001101</text>
  <text x="25" y="410">0xN1</text>
  <text x="445" y="135">0xAF</text>
</g>

<g filter="url(#ultra-glow)" opacity="0.95">
  <circle cx="256" cy="256" r="230" fill="url(#burst-mega)"/>
</g>
<g filter="url(#mega-glow)" opacity="0.9">
  <circle cx="256" cy="256" r="140" fill="url(#burst-core)"/>
</g>
<g filter="url(#strong-glow)" opacity="0.85">
  <circle cx="256" cy="256" r="60" fill="#ffffff" opacity="0.35"/>
</g>

<g filter="url(#ray-blur)" opacity="0.85">
  <g stroke="#00f5c4" stroke-linecap="round" fill="none">
    <line x1="256" y1="256" x2="256" y2="8" stroke-width="2.5" opacity="0.7"/>
    <line x1="256" y1="256" x2="256" y2="504" stroke-width="2.5" opacity="0.7"/>
    <line x1="256" y1="256" x2="8" y2="256" stroke-width="2.5" opacity="0.6"/>
    <line x1="256" y1="256" x2="504" y2="256" stroke-width="2.5" opacity="0.6"/>
    <line x1="256" y1="256" x2="80" y2="80" stroke-width="2" opacity="0.55"/>
    <line x1="256" y1="256" x2="432" y2="80" stroke-width="2" opacity="0.55"/>
    <line x1="256" y1="256" x2="80" y2="432" stroke-width="2" opacity="0.55"/>
    <line x1="256" y1="256" x2="432" y2="432" stroke-width="2" opacity="0.55"/>
  </g>
  <g stroke="#38bdf8" stroke-linecap="round" fill="none">
    <line x1="256" y1="256" x2="140" y2="20" stroke-width="1.5" opacity="0.5"/>
    <line x1="256" y1="256" x2="372" y2="20" stroke-width="1.5" opacity="0.5"/>
    <line x1="256" y1="256" x2="140" y2="492" stroke-width="1.5" opacity="0.5"/>
    <line x1="256" y1="256" x2="372" y2="492" stroke-width="1.5" opacity="0.5"/>
    <line x1="256" y1="256" x2="20" y2="140" stroke-width="1.5" opacity="0.5"/>
    <line x1="256" y1="256" x2="20" y2="372" stroke-width="1.5" opacity="0.5"/>
    <line x1="256" y1="256" x2="492" y2="140" stroke-width="1.5" opacity="0.5"/>
    <line x1="256" y1="256" x2="492" y2="372" stroke-width="1.5" opacity="0.5"/>
  </g>
  <g stroke="#a8fff0" stroke-linecap="round" fill="none" opacity="0.6">
    <line x1="256" y1="256" x2="195" y2="15" stroke-width="1"/>
    <line x1="256" y1="256" x2="317" y2="15" stroke-width="1"/>
    <line x1="256" y1="256" x2="195" y2="497" stroke-width="1"/>
    <line x1="256" y1="256" x2="317" y2="497" stroke-width="1"/>
    <line x1="256" y1="256" x2="15" y2="195" stroke-width="1"/>
    <line x1="256" y1="256" x2="15" y2="317" stroke-width="1"/>
    <line x1="256" y1="256" x2="497" y2="195" stroke-width="1"/>
    <line x1="256" y1="256" x2="497" y2="317" stroke-width="1"/>
  </g>
</g>

<g opacity="0.9">
  <circle cx="80" cy="70" r="1.3" fill="#fff"/>
  <circle cx="440" cy="80" r="1.1" fill="#fff"/>
  <circle cx="60" cy="450" r="1.2" fill="#fff"/>
  <circle cx="460" cy="440" r="1.4" fill="#fff"/>
  <circle cx="180" cy="30" r="0.9" fill="#a8fff0"/>
  <circle cx="350" cy="40" r="1" fill="#bce4ff"/>
  <circle cx="30" cy="200" r="0.9" fill="#fff"/>
  <circle cx="485" cy="305" r="1" fill="#a8fff0"/>
  <circle cx="115" cy="485" r="0.8" fill="#bce4ff"/>
  <circle cx="390" cy="475" r="0.9" fill="#fff"/>
  <circle cx="25" cy="355" r="0.7" fill="#fff"/>
  <circle cx="490" cy="170" r="0.8" fill="#a8fff0"/>
  <circle cx="240" cy="20" r="0.7" fill="#fff"/>
  <circle cx="275" cy="495" r="0.8" fill="#bce4ff"/>
  <circle cx="15" cy="280" r="0.6" fill="#a8fff0"/>
  <circle cx="500" cy="240" r="0.7" fill="#fff"/>
</g>

<g filter="url(#mega-glow)" opacity="0.7">
  <polygon points="256,82 405,168 405,344 256,430 107,344 107,168" fill="none" stroke="#00f5c4" stroke-width="1.5"/>
</g>
<g filter="url(#strong-glow)" opacity="0.9">
  <polygon points="256,92 396,172 396,340 256,420 116,340 116,172" fill="none" stroke="#00f5c4" stroke-width="1.5"/>
</g>

<polygon points="256,100 388,176 388,324 256,400 124,324 124,176" fill="url(#hex-fill)" stroke="#00f5c4" stroke-width="3"/>
<polygon points="256,108 380,180 380,320 256,392 132,320 132,180" fill="none" stroke="#00f5c4" stroke-width="0.8" opacity="0.7"/>
<polygon points="256,116 372,184 372,316 256,384 140,316 140,184" fill="none" stroke="#38bdf8" stroke-width="0.5" opacity="0.4"/>

<g clip-path="url(#hex-clip)" opacity="0.7">
  <g stroke="#00f5c4" stroke-width="0.5" fill="none" opacity="0.4">
    <line x1="124" y1="200" x2="388" y2="200"/>
    <line x1="124" y1="230" x2="388" y2="230"/>
    <line x1="124" y1="260" x2="388" y2="260"/>
    <line x1="124" y1="290" x2="388" y2="290"/>
    <line x1="124" y1="320" x2="388" y2="320"/>
    <line x1="160" y1="120" x2="160" y2="380"/>
    <line x1="200" y1="120" x2="200" y2="380"/>
    <line x1="256" y1="120" x2="256" y2="380"/>
    <line x1="312" y1="120" x2="312" y2="380"/>
    <line x1="352" y1="120" x2="352" y2="380"/>
  </g>
  <g stroke="#00f5c4" stroke-width="0.9" fill="none" opacity="0.75" stroke-linecap="round">
    <path d="M150,170 L165,170 L172,177 L172,195 L160,207 L160,225"/>
    <path d="M362,170 L347,170 L340,177 L340,195 L352,207 L352,225"/>
    <path d="M150,330 L165,330 L172,323 L172,305 L160,293 L160,275"/>
    <path d="M362,330 L347,330 L340,323 L340,305 L352,293 L352,275"/>
    <path d="M140,250 L165,250 L175,260 L185,260"/>
    <path d="M372,250 L347,250 L337,240 L327,240"/>
    <path d="M220,130 L220,145 L230,155 L250,155"/>
    <path d="M292,130 L292,145 L282,155 L262,155"/>
    <path d="M220,370 L220,355 L230,345 L250,345"/>
    <path d="M292,370 L292,355 L282,345 L262,345"/>
  </g>
  <g stroke="#38bdf8" stroke-width="0.7" fill="none" opacity="0.55" stroke-linecap="round">
    <path d="M170,210 L185,210 L195,220 L195,240"/>
    <path d="M342,210 L327,210 L317,220 L317,240"/>
    <path d="M170,302 L185,302 L195,292 L195,272"/>
    <path d="M342,302 L327,302 L317,292 L317,272"/>
    <path d="M230,180 L240,190 L240,200"/>
    <path d="M282,180 L272,190 L272,200"/>
    <path d="M230,332 L240,322 L240,312"/>
    <path d="M282,332 L272,322 L272,312"/>
  </g>
  <g fill="#00f5c4" opacity="0.8">
    <rect x="148" y="168" width="4" height="4"/>
    <rect x="148" y="328" width="4" height="4"/>
    <rect x="360" y="168" width="4" height="4"/>
    <rect x="360" y="328" width="4" height="4"/>
    <rect x="158" y="223" width="4" height="4"/>
    <rect x="350" y="223" width="4" height="4"/>
    <rect x="158" y="273" width="4" height="4"/>
    <rect x="350" y="273" width="4" height="4"/>
    <rect x="183" y="208" width="3" height="3"/>
    <rect x="326" y="208" width="3" height="3"/>
    <rect x="183" y="301" width="3" height="3"/>
    <rect x="326" y="301" width="3" height="3"/>
    <rect x="248" y="153" width="3" height="3"/>
    <rect x="261" y="153" width="3" height="3"/>
    <rect x="248" y="346" width="3" height="3"/>
    <rect x="261" y="346" width="3" height="3"/>
  </g>
  <g fill="#38bdf8" opacity="0.75">
    <rect x="193" y="238" width="3" height="3"/>
    <rect x="315" y="238" width="3" height="3"/>
    <rect x="193" y="270" width="3" height="3"/>
    <rect x="315" y="270" width="3" height="3"/>
    <rect x="238" y="198" width="3" height="3"/>
    <rect x="270" y="198" width="3" height="3"/>
    <rect x="238" y="310" width="3" height="3"/>
    <rect x="270" y="310" width="3" height="3"/>
  </g>
  <g opacity="0.3" font-family="monospace" font-size="6" fill="#00f5c4">
    <text x="146" y="195">01</text>
    <text x="354" y="195">10</text>
    <text x="146" y="345">10</text>
    <text x="354" y="345">01</text>
    <text x="180" y="135">N1</text>
    <text x="320" y="135">N2</text>
    <text x="180" y="375">N3</text>
    <text x="320" y="375">N4</text>
  </g>
</g>

<g stroke="#00f5c4" stroke-width="0.9" fill="none" opacity="0.6">
  <path d="M256,100 L256,75 L240,60"/>
  <path d="M256,100 L272,85"/>
  <path d="M388,176 L412,165 L420,150"/>
  <path d="M388,176 L405,190"/>
  <path d="M388,324 L412,335 L420,350"/>
  <path d="M388,324 L405,310"/>
  <path d="M256,400 L256,425 L272,440"/>
  <path d="M256,400 L240,415"/>
  <path d="M124,324 L100,335 L92,350"/>
  <path d="M124,324 L107,310"/>
  <path d="M124,176 L100,165 L92,150"/>
  <path d="M124,176 L107,190"/>
</g>

<g filter="url(#soft-glow)">
  <circle cx="256" cy="100" r="5" fill="#00f5c4"/>
  <circle cx="388" cy="176" r="5" fill="#00f5c4"/>
  <circle cx="388" cy="324" r="5" fill="#00f5c4"/>
  <circle cx="256" cy="400" r="5" fill="#00f5c4"/>
  <circle cx="124" cy="324" r="5" fill="#00f5c4"/>
  <circle cx="124" cy="176" r="5" fill="#00f5c4"/>
</g>
<g fill="#ffffff">
  <circle cx="256" cy="100" r="2"/>
  <circle cx="388" cy="176" r="2"/>
  <circle cx="388" cy="324" r="2"/>
  <circle cx="256" cy="400" r="2"/>
  <circle cx="124" cy="324" r="2"/>
  <circle cx="124" cy="176" r="2"/>
</g>

<g fill="#38bdf8" opacity="0.85">
  <rect x="238" y="58" width="3" height="3"/>
  <rect x="271" y="58" width="3" height="3"/>
  <rect x="402" y="148" width="3" height="3"/>
  <rect x="402" y="349" width="3" height="3"/>
  <rect x="98" y="148" width="3" height="3"/>
  <rect x="98" y="349" width="3" height="3"/>
  <rect x="238" y="438" width="3" height="3"/>
  <rect x="271" y="438" width="3" height="3"/>
</g>

<g filter="url(#mega-glow)" opacity="0.75">
  <path d="M186,346 L186,166 L208,166 L326,300 L326,166 L348,166 L348,346 L326,346 L208,212 L208,346 Z" fill="#38bdf8" opacity="0.5"/>
</g>
<g filter="url(#strong-glow)">
  <path d="M186,346 L186,166 L208,166 L326,300 L326,166 L348,166 L348,346 L326,346 L208,212 L208,346 Z" fill="url(#n-teal)" opacity="0.95"/>
</g>
<path d="M186,346 L186,166 L208,166 L326,300 L326,166 L348,166 L348,346 L326,346 L208,212 L208,346 Z" fill="url(#n-teal)"/>

<path d="M192,340 L192,172 L204,172 L204,340 Z" fill="#e8fff8" opacity="0.7"/>
<path d="M330,340 L330,172 L342,172 L342,340 Z" fill="#e8f6ff" opacity="0.7"/>

<g filter="url(#soft-glow)">
  <path d="M208,172 L326,306" stroke="url(#n-diag)" stroke-width="14" fill="none" stroke-linecap="square" opacity="0.6"/>
</g>
<path d="M208,172 L326,306" stroke="#ffffff" stroke-width="3" fill="none" stroke-linecap="square" opacity="0.85"/>

<g filter="url(#soft-glow)">
  <rect x="183" y="163" width="28" height="10" fill="#a8fff0"/>
  <rect x="323" y="163" width="28" height="10" fill="#bce4ff"/>
  <rect x="183" y="339" width="28" height="10" fill="#a8fff0"/>
  <rect x="323" y="339" width="28" height="10" fill="#bce4ff"/>
</g>
<rect x="186" y="166" width="22" height="6" fill="#ffffff" opacity="0.9"/>
<rect x="326" y="166" width="22" height="6" fill="#ffffff" opacity="0.9"/>
<rect x="186" y="340" width="22" height="6" fill="#ffffff" opacity="0.9"/>
<rect x="326" y="340" width="22" height="6" fill="#ffffff" opacity="0.9"/>

<g filter="url(#mega-glow)" opacity="0.9">
  <circle cx="186" cy="166" r="11" fill="#00f5c4"/>
  <circle cx="186" cy="346" r="11" fill="#00f5c4"/>
  <circle cx="348" cy="166" r="11" fill="#38bdf8"/>
  <circle cx="348" cy="346" r="11" fill="#38bdf8"/>
</g>
<g filter="url(#strong-glow)">
  <circle cx="186" cy="166" r="7" fill="#a8fff0"/>
  <circle cx="186" cy="346" r="7" fill="#a8fff0"/>
  <circle cx="348" cy="166" r="7" fill="#bce4ff"/>
  <circle cx="348" cy="346" r="7" fill="#bce4ff"/>
</g>
<circle cx="186" cy="166" r="3" fill="#ffffff"/>
<circle cx="186" cy="346" r="3" fill="#ffffff"/>
<circle cx="348" cy="166" r="3" fill="#ffffff"/>
<circle cx="348" cy="346" r="3" fill="#ffffff"/>

<g filter="url(#mega-glow)" opacity="0.9">
  <circle cx="256" cy="240" r="9" fill="#ffffff"/>
</g>
<circle cx="256" cy="240" r="4" fill="#ffffff"/>

<g filter="url(#soft-glow)" opacity="0.95">
  <circle cx="226" cy="210" r="3" fill="#a8fff0"/>
  <circle cx="290" cy="270" r="3" fill="#bce4ff"/>
  <circle cx="245" cy="225" r="2" fill="#ffffff"/>
  <circle cx="305" cy="285" r="2" fill="#ffffff"/>
  <circle cx="268" cy="248" r="2" fill="#ffffff"/>
</g>

<g stroke="#00f5c4" stroke-width="0.7" fill="none" opacity="0.55" stroke-linecap="round">
  <path d="M124,250 L75,250 L60,235 L60,210"/>
  <path d="M388,250 L437,250 L452,265 L452,290"/>
  <circle cx="60" cy="210" r="2.5" fill="#00f5c4" opacity="0.8"/>
  <circle cx="452" cy="290" r="2.5" fill="#00f5c4" opacity="0.8"/>
  <path d="M256,82 L256,55 L240,40 L220,40"/>
  <path d="M256,430 L256,460 L272,475 L295,475"/>
  <circle cx="220" cy="40" r="2.5" fill="#38bdf8" opacity="0.8"/>
  <circle cx="295" cy="475" r="2.5" fill="#38bdf8" opacity="0.8"/>
</g>

<g filter="url(#strong-glow)" opacity="0.5">
  <polygon points="256,100 388,176 388,324 256,400 124,324 124,176" fill="none" stroke="#00f5c4" stroke-width="1"/>
</g>
</svg>
